<?xml version="1.0" standalone="no"?>
<!DOCTYPE svg PUBLIC "-//W3C//DTD SVG 20010904//EN"
 "http://www.w3.org/TR/2001/REC-SVG-20010904/DTD/svg10.dtd">
<svg version="1.0" xmlns="http://www.w3.org/2000/svg"
 width="182.000000pt" height="129.000000pt" viewBox="0 0 182.000000 129.000000"
 preserveAspectRatio="xMidYMid meet">

<g transform="translate(0.000000,129.000000) scale(0.100000,-0.100000)"
fill="#000000" stroke="none">
<path d="M1514 1199 c62 -10 106 -28 106 -43 0 -49 -166 -225 -356 -377 -360
-287 -731 -465 -984 -470 -101 -3 -110 29 -31 109 36 36 39 43 16 28 -65 -41
-146 -112 -151 -134 -14 -54 54 -85 196 -87 63 -2 127 -9 159 -19 66 -19 188
-21 256 -2 115 30 200 93 273 200 64 94 85 96 33 4 -37 -69 -41 -82 -41 -147
l0 -71 280 0 280 0 0 75 0 75 -180 0 c-114 0 -180 4 -180 10 0 6 41 81 90 169
88 153 93 160 173 222 112 87 228 204 262 263 35 60 39 124 10 156 -33 38 -77
50 -172 49 -81 -1 -84 -2 -39 -10z m-703 -863 c-17 -20 -88 -52 -136 -61 -55
-10 -38 4 53 41 90 37 99 39 83 20z"/>
<path d="M1428 1193 c6 -2 18 -2 25 0 6 3 1 5 -13 5 -14 0 -19 -2 -12 -5z"/>
<path d="M500 1119 c-166 -32 -321 -183 -359 -350 -15 -63 -13 -166 3 -229
l14 -54 -43 -53 c-53 -64 -70 -109 -56 -147 6 -14 12 -26 13 -26 2 0 3 18 3
40 1 61 37 93 291 257 15 10 13 10 -14 1 -18 -5 -36 -8 -39 -4 -14 14 -21 111
-12 164 13 71 30 102 82 160 60 65 124 92 217 92 127 0 225 -63 278 -179 21
-46 26 -71 26 -138 0 -54 4 -80 11 -76 5 4 43 28 83 55 83 56 85 63 52 170
-70 229 -306 364 -550 317z"/>
<path d="M1010 1015 l0 -75 160 0 c88 0 160 -2 160 -4 0 -3 -10 -21 -21 -41
-12 -20 -19 -38 -16 -41 6 -6 237 215 237 227 0 5 -115 9 -260 9 l-260 0 0
-75z"/>
<path d="M434 543 c-81 -67 -184 -169 -184 -184 0 -20 34 -21 117 -4 l86 18
-36 30 c-21 16 -37 35 -37 43 0 7 30 45 66 84 37 38 65 70 62 70 -2 0 -35 -26
-74 -57z"/>
</g>
</svg>
